<?xml version="1.0" encoding="utf-8"?>
<!-- Generator: Adobe Illustrator 28.1.0, SVG Export Plug-In . SVG Version: 6.00 Build 0)  -->
<svg version="1.1" id="Layer_1" xmlns="http://www.w3.org/2000/svg" xmlns:xlink="http://www.w3.org/1999/xlink" x="0px" y="0px"
	 viewBox="0 0 243.73 46.5" style="enable-background:new 0 0 243.73 46.5;" xml:space="preserve">
<style type="text/css">
	.st0{fill:#FFFFFF;}
	.st1{fill:#4437DE;}
</style>
<g>
	<g>
		<path class="st1" d="M30.54,22.9L30.54,22.9c0,4.22-3.42,7.63-7.63,7.63h-7.64v7.64c0,4.22-3.42,7.63-7.63,7.63
			C3.42,45.81,0,42.39,0,38.17V7.63C0,3.42,3.42,0,7.63,0c4.22,0,7.63,3.42,7.63,7.63v7.64h7.64C27.12,15.27,30.54,18.69,30.54,22.9
			"/>
		<path class="st1" d="M38.17,15.27L38.17,15.27c-4.22,0-7.63-3.42-7.63-7.63c0-4.22,3.42-7.63,7.63-7.63
			c4.22,0,7.63,3.42,7.63,7.63C45.81,11.85,42.39,15.27,38.17,15.27"/>
		<path class="st1" d="M38.17,45.81L38.17,45.81c-4.22,0-7.63-3.42-7.63-7.63c0-4.22,3.42-7.63,7.63-7.63
			c4.22,0,7.63,3.42,7.63,7.63C45.81,42.39,42.39,45.81,38.17,45.81"/>
	</g>
	<g>
		<path class="st1" d="M85.63,10.79c1.54,0,2.81,1.3,2.81,2.84v18.49c0,1.54-1.27,2.84-2.81,2.84c-1.57,0-2.81-1.3-2.81-2.84V25.4
			h-9.11v6.71c0,1.54-1.23,2.84-2.77,2.84c-1.58,0-2.84-1.3-2.84-2.84V13.63c0-1.54,1.27-2.84,2.84-2.84c1.54,0,2.77,1.3,2.77,2.84
			v6.98h9.11v-6.98C82.82,12.09,84.06,10.79,85.63,10.79z"/>
		<path class="st1" d="M116.27,22.87c0,7.22-5.82,12.22-12.05,12.22c-6.2,0-12.02-5-12.02-12.22s5.82-12.22,12.02-12.22
			C110.45,10.65,116.27,15.65,116.27,22.87z M98.09,22.87c0,4.18,2.67,6.88,6.13,6.88c3.49,0,6.16-2.7,6.16-6.88
			c0-4.18-2.6-6.88-6.16-6.88C100.76,15.99,98.09,18.69,98.09,22.87z"/>
		<path class="st1" d="M133.62,12.87c0.82,0.86,1.27,1.57,1.27,2.43c0,1.27-0.99,2.23-2.33,2.23c-0.86,0-1.68-0.41-2.19-1.03
			c-0.86-0.75-1.51-0.99-2.5-0.99c-1.71,0-2.57,0.96-2.57,2.09c0,0.68,0.27,1.61,2.16,2.33l0.96,0.38c5.89,2.23,7.74,4.35,7.74,7.46
			c0,4.93-4.93,7.33-8.94,7.33c-2.5,0-5.13-0.89-6.98-2.7c-0.41-0.51-1.23-1.51-1.23-2.81c0-1.13,0.75-2.36,2.29-2.36
			c1.2,0,2.02,0.82,2.64,1.54c1.23,1.23,2.4,1.44,3.29,1.44c1.27,0,3.18-0.45,3.18-2.43c0-1.34-0.75-2.09-3.32-3.11l-1.06-0.41
			c-3.59-1.4-6.33-3.08-6.33-6.74c0-4.24,3.53-6.85,7.94-6.85C130.5,10.65,132.11,11.57,133.62,12.87z"/>
		<path class="st1" d="M156.21,13.39c0,1.37-1.13,2.46-2.46,2.46h-4.24v16.33c0,1.61-1.3,2.94-2.77,2.94
			c-1.54,0-2.84-1.34-2.84-2.94V15.85h-4.21c-1.34,0-2.5-1.1-2.5-2.46c0-1.4,1.16-2.5,2.5-2.5h14.07
			C155.08,10.89,156.21,11.98,156.21,13.39z"/>
		<path class="st1" d="M173.56,29.96c1.37,0,2.5,1.1,2.5,2.43c0,1.37-1.13,2.46-2.5,2.46H162.4c-1.81,0-3.12-1.3-3.12-3.12V14
			c0-1.81,1.3-3.12,3.12-3.12h10.82c1.37,0,2.5,1.1,2.5,2.4c0,1.4-1.13,2.5-2.5,2.5h-8.32v4.69h5.17c1.37,0,2.47,1.1,2.47,2.33
			c0,1.3-1.1,2.36-2.47,2.36h-5.17v4.79H173.56z"/>
		<path class="st1" d="M197.8,32.32c0,1.44-1.1,2.64-2.57,2.64c-0.89,0-1.61-0.41-2.05-1.03l-5.68-7.26h-2.57v5.65
			c0,1.54-1.23,2.81-2.77,2.81c-1.58,0-2.84-1.27-2.84-2.81V14c0-1.81,1.3-3.12,3.12-3.12h6.26c5.34,0,8.8,3.63,8.8,7.94
			c0,2.98-1.68,5.58-4.45,6.92l4.07,4.86C197.45,31.09,197.8,31.63,197.8,32.32z M184.92,21.88h3.46c1.95,0,3.66-0.51,3.66-3.05
			c0-2.57-1.71-3.15-3.66-3.15h-3.46V21.88z"/>
		<path class="st1" d="M200.53,31.91c0-1.68,1.4-3.08,3.12-3.08c1.68,0,3.08,1.4,3.08,3.08c0,1.75-1.4,3.12-3.08,3.12
			C201.93,35.02,200.53,33.65,200.53,31.91z"/>
		<path class="st1" d="M215.9,13.59v18.55c0,1.54-1.34,2.88-2.88,2.88c-1.57,0-2.88-1.34-2.88-2.88V13.59c0-1.54,1.3-2.88,2.88-2.88
			C214.57,10.72,215.9,12.05,215.9,13.59z"/>
		<path class="st1" d="M241.09,31.39c0.41,0.44,0.62,0.99,0.62,1.57c0,1.27-1.03,2.29-2.29,2.29c-0.65,0-1.27-0.21-1.64-0.65
			l-0.75-0.79c-1.64,0.82-3.49,1.27-5.34,1.27c-6.2,0-12.02-5-12.02-12.22s5.82-12.22,12.02-12.22c6.23,0,12.05,5,12.05,12.22
			c0,3.25-1.16,6.03-3.01,8.11L241.09,31.39z M232.95,29.61l-0.89-0.89c-0.41-0.45-0.72-0.99-0.72-1.57c0-1.3,1.03-2.33,2.29-2.33
			c0.65,0,1.3,0.27,1.68,0.72l1.44,1.44c0.68-1.1,1.1-2.5,1.1-4.11c0-4.18-2.6-6.88-6.16-6.88c-3.46,0-6.13,2.7-6.13,6.88
			c0,4.18,2.67,6.88,6.13,6.88C232.13,29.75,232.54,29.72,232.95,29.61z"/>
	</g>
</g>
</svg>
